HIERARCHY
ROOT Hips
{
	OFFSET 0.00 0.00 0.00
	CHANNELS 6 Xposition Yposition Zposition Xrotation Yrotation Zrotation
	JOINT RightUpLeg
	{
		OFFSET -3.76699 0.00000 0.00000
		CHANNELS 3 Xrotation Yrotation Zrotation
		JOINT RightLeg
		{
			OFFSET 0.00000 -18.01768 0.00000
			CHANNELS 3 Xrotation Yrotation Zrotation
			JOINT RightFoot
			{
				OFFSET 0.00000 -16.88108 0.00000
				CHANNELS 3 Xrotation Yrotation Zrotation
				JOINT RightToeBase
				{
					OFFSET 0.00000 -1.49359 5.57418
					CHANNELS 3 Xrotation Yrotation Zrotation
					End Site
					{
						OFFSET 0.00000 0.00000 2.95275
					}
				}
			}
		}
	}
	JOINT LeftUpLeg
	{
		OFFSET 3.76699 0.00000 0.00000
		CHANNELS 3 Xrotation Yrotation Zrotation
		JOINT LeftLeg
		{
			OFFSET 0.00000 -18.01768 0.00000
			CHANNELS 3 Xrotation Yrotation Zrotation
			JOINT LeftFoot
			{
				OFFSET 0.00000 -16.88108 0.00000
				CHANNELS 3 Xrotation Yrotation Zrotation
				JOINT LeftToeBase
				{
					OFFSET 0.00000 -1.49359 5.57418
					CHANNELS 3 Xrotation Yrotation Zrotation
					End Site
					{
						OFFSET 0.00000 0.00000 2.95275
					}
				}
			}
		}
	}
	JOINT Spine
	{
		OFFSET 0.00000 7.77970 0.00000
		CHANNELS 3 Xrotation Yrotation Zrotation
		JOINT RightShoulder
		{
			OFFSET 0.00000 10.94176 0.00000
			CHANNELS 3 Xrotation Yrotation Zrotation
			JOINT RightArm
			{
				OFFSET -7.70894 0.00000 0.00000
				CHANNELS 3 Xrotation Yrotation Zrotation
				JOINT RightForeArm
				{
					OFFSET -11.52135 0.00000 0.00000
					CHANNELS 3 Yrotation Zrotation Xrotation
					JOINT RightHand
					{
						OFFSET -10.17590 0.00000 0.00000
						CHANNELS 3 Xrotation Yrotation Zrotation
						End Site
						{
							OFFSET -3.93700 0.00000 0.00000
						}
						JOINT RightHandThumb1
						{
							OFFSET 0.00000 0.00000 0.00000
							CHANNELS 3 Xrotation Zrotation Yrotation
							End Site
							{
								OFFSET 0.00000 0.00000 3.93700
							}
						}
					}
				}
			}
		}
		JOINT LeftShoulder
		{
			OFFSET 0.00000 10.94176 0.00000
			CHANNELS 3 Xrotation Yrotation Zrotation
			JOINT LeftArm
			{
				OFFSET 7.70894 0.00000 0.00000
				CHANNELS 3 Xrotation Yrotation Zrotation
				JOINT LeftForeArm
				{
					OFFSET 11.52135 0.00000 0.00000
					CHANNELS 3 Yrotation Zrotation Xrotation
					JOINT LeftHand
					{
						OFFSET 10.17590 0.00000 0.00000
						CHANNELS 3 Xrotation Yrotation Zrotation
						End Site
						{
							OFFSET 3.93700 0.00000 0.00000
						}
						JOINT LeftHandThumb1
						{
							OFFSET 0.00000 0.00000 0.00000
							CHANNELS 3 Xrotation Zrotation Yrotation
							End Site
							{
								OFFSET 0.00000 0.00000 3.93700
							}
						}
					}
				}
			}
		}
		JOINT Head
		{
			OFFSET 0.00000 16.64604 0.00000
			CHANNELS 3 Xrotation Yrotation Zrotation
			End Site
			{
				OFFSET 0.00000 4.52755 0.00000
			}
		}
	}
}
MOTION
Frames:	11
Frame Time: 0.008333
-2.1680 37.1098 3.5641 -2.7943 0.4589 -1.7800 9.2627 -2.2700 -3.4494 -3.0211 0.0000 -0.0000 -3.2586 -20.4587 14.2341 10.1104 -0.0000 -0.0000 9.4516 9.9347 4.4649 -4.9297 0.0000 -0.0000 -6.6602 21.0683 -9.8759 13.8020 -0.0000 -0.0000 6.0607 4.9345 1.8548 20.1999 -29.9434 -19.6412 -65.4156 -5.9888 32.9768 5.4205 0.0000 48.7934 1.3085 -14.9573 5.0575 33.1476 -0.0000 -26.2537 5.8788 7.5519 27.0723 -31.8745 5.5906 -28.6247 -19.5072 0.0000 -1.6873 -0.1585 -1.7346 -5.2225 32.8623 0.0000 24.3270 -7.7613 -12.3732 -5.9195
-2.1659 37.1100 3.5628 -2.8013 0.4620 -1.7767 9.2657 -2.2814 -3.4557 -3.0178 0.0000 -0.0000 -3.2602 -20.4481 14.2374 10.1183 -0.0000 -0.0000 9.4637 9.9160 4.4579 -4.9403 0.0000 -0.0000 -6.6493 21.0823 -9.8814 13.7908 -0.0000 -0.0000 6.0591 4.9308 1.8601 20.2294 -29.9332 -19.6559 -65.4756 -6.0414 32.9825 5.4447 0.0000 48.8167 1.3116 -14.9849 5.0604 33.1476 -0.0000 -26.2537 5.8394 7.5075 27.0907 -31.7847 5.5844 -28.6320 -19.5239 -0.0000 -1.7126 -0.1562 -1.7126 -5.2116 32.8623 0.0000 24.3270 -7.6973 -12.4090 -5.8749
-2.1646 37.1102 3.5615 -2.8056 0.4619 -1.7769 9.2691 -2.2891 -3.4570 -3.0226 0.0000 -0.0000 -3.2471 -20.4440 14.2314 10.0948 -0.0000 -0.0000 9.4654 9.9168 4.4563 -4.9377 0.0000 -0.0000 -6.6451 21.0808 -9.8774 13.7944 -0.0000 -0.0000 6.0574 4.9455 1.8630 20.2055 -29.9194 -19.6679 -65.4570 -6.0479 32.9812 5.4614 0.0000 48.8363 1.3086 -14.9359 5.0650 33.1476 -0.0000 -26.2537 5.8566 7.5033 27.1023 -31.7768 5.5428 -28.6460 -19.5172 0.0000 -1.7298 -0.1577 -1.7314 -5.2066 32.8623 0.0000 24.3270 -7.6476 -12.4374 -5.8343
-2.1651 37.1105 3.5614 -2.8181 0.4609 -1.7904 9.2832 -2.2901 -3.4423 -3.0279 0.0000 -0.0000 -3.2319 -20.4535 14.2672 10.1082 -0.0000 -0.0000 9.4324 10.0125 4.4704 -4.8678 0.0000 -0.0000 -6.6960 21.0025 -9.8545 13.7906 -0.0000 -0.0000 6.0602 4.9479 1.8736 20.1944 -29.8841 -19.6663 -65.4493 -6.0409 32.9683 5.4579 0.0000 48.8451 1.3070 -14.8336 5.0927 33.1476 -0.0000 -26.2537 5.8662 7.5040 27.1258 -31.7506 5.5125 -28.6524 -19.5355 -0.0000 -1.6854 -0.1551 -1.6721 -5.3009 32.8623 0.0000 24.3270 -7.6051 -12.3797 -5.8271
-2.1616 37.1111 3.5594 -2.8210 0.4662 -1.7788 9.2824 -2.3047 -3.4583 -3.0265 0.0000 -0.0000 -3.2308 -20.4343 14.2483 10.0879 -0.0000 -0.0000 9.4768 9.9153 4.4530 -4.9374 0.0000 -0.0000 -6.6466 21.0819 -9.8608 13.7783 -0.0000 -0.0000 6.0609 4.9548 1.8724 20.1920 -29.8839 -19.6787 -65.4561 -6.0568 32.9805 5.4727 0.0000 48.8622 1.3060 -14.8560 5.0814 33.1476 -0.0000 -26.2537 5.9210 7.5168 27.1094 -31.7975 5.4733 -28.6490 -19.5356 -0.0000 -1.6922 -0.1557 -1.6727 -5.3177 32.8623 0.0000 24.3270 -7.5392 -12.3783 -5.7873
-2.1617 37.1113 3.5592 -2.8320 0.4711 -1.7894 9.2952 -2.3101 -3.4468 -3.0303 0.0000 -0.0000 -3.2261 -20.4325 14.2420 10.1254 -0.0000 -0.0000 9.4488 9.9923 4.4644 -4.8786 0.0000 -0.0000 -6.6815 21.0103 -9.8535 13.8247 -0.0000 -0.0000 6.0625 4.9579 1.8903 20.2000 -29.8829 -19.6864 -65.4638 -6.0608 32.9986 5.4854 0.0000 48.8724 1.3106 -14.8630 5.0968 33.1476 -0.0000 -26.2537 5.9186 7.4925 27.1156 -31.8064 5.4810 -28.6683 -19.5475 0.0000 -1.6837 -0.1534 -1.6827 -5.2099 32.8623 0.0000 24.3270 -7.4816 -12.3994 -5.7666
-2.1604 37.1115 3.5578 -2.8384 0.4739 -1.7907 9.2997 -2.3113 -3.4462 -3.0293 0.0000 -0.0000 -3.2193 -20.4439 14.2607 10.1160 -0.0000 -0.0000 9.4480 9.9998 4.4648 -4.8718 0.0000 -0.0000 -6.6858 21.0045 -9.8472 13.7873 -0.0000 -0.0000 6.0639 4.9664 1.8939 20.2062 -29.8805 -19.6817 -65.4565 -6.0461 33.0122 5.4887 0.0000 48.8650 1.3237 -14.9450 5.1201 33.1476 -0.0000 -26.2537 5.9510 7.5027 27.1216 -31.7890 5.4173 -28.6607 -19.5307 0.0000 -1.7311 -0.1595 -1.7088 -5.3331 32.8623 0.0000 24.3270 -7.4313 -12.4200 -5.7258
-2.1590 37.1117 3.5568 -2.8414 0.4765 -1.7908 9.3006 -2.3125 -3.4480 -3.0277 0.0000 -0.0000 -3.2166 -20.4384 14.2434 10.0144 -0.0000 -0.0000 9.4543 9.9983 4.4630 -4.8805 0.0000 -0.0000 -6.6721 21.0031 -9.8659 13.7576 -0.0000 -0.0000 6.0591 4.9619 1.8982 20.2206 -29.8693 -19.6817 -65.4629 -6.0532 33.0290 5.5162 0.0000 48.8891 1.3274 -15.0116 5.1120 33.1476 -0.0000 -26.2537 6.0233 7.5501 27.0877 -31.8303 5.3382 -28.6278 -19.5196 0.0000 -1.7997 -0.1638 -1.7286 -5.4133 32.8623 0.0000 24.3270 -7.3724 -12.4256 -5.6983
-2.1574 37.1119 3.5556 -2.8465 0.4822 -1.7896 9.3036 -2.3226 -3.4483 -3.0286 0.0000 -0.0000 -3.2175 -20.4540 14.2609 10.1281 -0.0000 -0.0000 9.4622 9.9921 4.4592 -4.8910 0.0000 -0.0000 -6.6651 20.9991 -9.8422 13.7804 -0.0000 -0.0000 6.0591 4.9651 1.9032 20.2408 -29.8864 -19.6765 -65.4810 -6.0446 33.0618 5.5202 0.0000 48.9137 1.3182 -15.0181 5.0747 33.1476 -0.0000 -26.2537 6.0476 7.5433 27.0892 -31.9107 5.3803 -28.6536 -19.5487 0.0000 -1.7862 -0.1603 -1.7280 -5.3018 32.8623 0.0000 24.3270 -7.3176 -12.4973 -5.6442
-2.1557 37.1122 3.5543 -2.8490 0.4904 -1.7895 9.3106 -2.3200 -3.4515 -3.0383 0.0000 -0.0000 -3.2034 -20.4592 14.2780 10.1163 -0.0000 -0.0000 9.4588 10.0010 4.4563 -4.8879 0.0000 -0.0000 -6.6697 20.9853 -9.8395 13.8283 -0.0000 -0.0000 6.0583 4.9545 1.9040 20.2354 -29.8644 -19.6731 -65.4612 -6.0272 33.0622 5.5137 0.0000 48.8557 1.3401 -14.9069 5.1962 33.1476 -0.0000 -26.2537 6.0419 7.5430 27.1024 -31.9202 5.3844 -28.6695 -19.5596 0.0000 -1.7687 -0.1598 -1.7259 -5.2918 32.8623 0.0000 24.3270 -7.2779 -12.4522 -5.6342
-2.1543 37.1123 3.5539 -2.8533 0.5006 -1.7919 9.3189 -2.3255 -3.4500 -3.0448 0.0000 -0.0000 -3.1852 -20.4611 14.2908 10.0990 -0.0000 -0.0000 9.4578 10.0068 4.4582 -4.8819 0.0000 -0.0000 -6.6817 20.9764 -9.8357 13.7700 -0.0000 -0.0000 6.0528 4.9439 1.9144 20.2478 -29.8581 -19.6781 -65.4702 -6.0346 33.0790 5.5227 -0.0000 48.8703 1.3472 -14.8779 5.2333 33.1476 -0.0000 -26.2537 6.0533 7.5348 27.1032 -31.9310 5.3833 -28.6696 -19.5541 -0.0000 -1.7884 -0.1598 -1.7243 -5.2956 32.8623 0.0000 24.3270 -7.2143 -12.5070 -5.5884
